REM MD5 8c41bfad298323349961e68e7fac4f75
FILE "Play Fun 04-00 (Germany).bin" BINARY
  TRACK 01 MODE2/2352
    INDEX 01 00:00:00
  TRACK 02 AUDIO
    INDEX 00 36:31:61
    INDEX 01 36:33:61
  TRACK 03 AUDIO
    INDEX 00 38:29:36
    INDEX 01 38:31:36
REM LEADOUT 41:32:37
